<?xml version="1.0" encoding="utf-8"?>
<!-- Generator: Adobe Illustrator 16.0.0, SVG Export Plug-In . SVG Version: 6.00 Build 0)  -->
<!DOCTYPE svg PUBLIC "-//W3C//DTD SVG 1.1//EN" "http://www.w3.org/Graphics/SVG/1.1/DTD/svg11.dtd">
<svg version="1.1" id="Layer_1" xmlns="http://www.w3.org/2000/svg" xmlns:xlink="http://www.w3.org/1999/xlink" x="0px" y="0px"
	 width="500px" height="500px" viewBox="0 0 500 500" enable-background="new 0 0 500 500" xml:space="preserve">
<g>
	<g>
		<g>
			<g>
				<linearGradient id="SVGID_1_" gradientUnits="userSpaceOnUse" x1="24.4736" y1="249.3936" x2="475.5264" y2="249.3936">
					<stop  offset="0" style="stop-color:#03A9F4"/>
					<stop  offset="1" style="stop-color:#02CBDF"/>
				</linearGradient>
				<circle fill="url(#SVGID_1_)" cx="249.999" cy="249.394" r="225.526"/>
			</g>
		</g>
		<circle fill="none" stroke="#FFFFFF" stroke-width="20" stroke-miterlimit="10" cx="249.999" cy="249.394" r="225.526"/>
	</g>
</g>
<g>
	<path fill-rule="evenodd" clip-rule="evenodd" fill="#FFFFFF" d="M51.25,356.063c10.918-34.515,13.857-44.069,30.035-76.521
		c37.642-75.514,96.934-123.396,180.882-138.616c21.278-3.858,42.826-4.674,64.404-2.354c13.056,1.405,24.693,5.252,31.647,17.745
		c9.198,16.529,3.537,37.579-13.023,46.696c-2.792,1.542-3.152,2.654-2.071,5.548c6.196,16.585,0.109,33.283-15.336,42.162
		c-2.215,1.275-2.518,2.545-2.139,4.798c2.706,16.054-2.707,28.399-16.333,36.674c-2.55,1.551-1.846,2.914-1.2,4.876
		c5.597,16.932-1.56,34.491-17.013,41.888c-12.304,5.887-26.764,3.324-36.369-6.898c-2.584-2.75-4.295-2.559-7.157-0.723
		c-14.134,9.07-22.245,22.481-27.899,37.781c-8.282,22.395-10.75,44.938-1.399,67.64c6.632,16.104,17.534,28.741,30.799,39.315
		c2.006,1.6-109.016-30.065-106.908-28.556 M304.472,174.642c3.311,0.026,6.619,0.103,9.927,0.063
		c4.694-0.056,8.597-3.702,9.258-8.551c0.654-4.804-2.467-10.164-6.871-11.087c-2.629-0.555-5.29-1.097-8.06-1.183
		c-11.933-0.365-23.795,0.797-35.501,2.613c-23.335,3.62-45.785,10.479-67.055,20.884c-13.559,6.63-26.311,14.604-38.24,23.879
		c-14.221,11.049-26.888,23.681-38.152,37.703c-14.357,17.879-25.795,37.563-35.379,58.346
		c-5.836,12.648-10.862,25.626-14.992,38.923c-2.725,8.774,1.714,14.244,10.698,13.731c4.357-0.246,6.618-2.869,7.902-6.761
		c6.848-20.758,15.082-40.892,25.988-59.918c9.532-16.63,20.776-31.966,33.918-45.851c12.58-13.283,26.897-24.449,42.679-33.815
		C232.644,184.595,267.354,175.363,304.472,174.642z M286.552,223.719c3.164,0.023,6.325,0.049,9.49,0.072
		c5.617,0.044,9.487-3.411,9.991-8.91c0.495-5.454-3.241-9.924-8.716-10.981c-9.862-1.905-19.801-1.219-29.529,0.061
		c-15.461,2.026-30.557,5.677-45.051,11.948c-27.966,12.103-51.414,29.987-70.341,53.694
		c-16.034,20.078-28.081,42.549-37.753,66.303c-2.612,6.408-0.513,11.925,5.299,14.297c5.434,2.217,10.743-0.469,13.229-6.838
		c3.762-9.624,8.156-18.93,13.063-28.027c12.243-22.688,27.657-42.705,47.883-58.926
		C221.159,234.721,251.948,223.884,286.552,223.719z M273.792,245.17c-13.53-0.238-26.381,3.051-38.956,7.637
		c-25.239,9.2-45.768,24.695-61.515,46.461c-8.298,11.463-14.876,23.876-19.56,37.222c-2.441,6.952,0.352,12.602,6.605,14.561
		c4.819,1.511,9.955-1.983,12.195-8.208c6.961-19.352,17.607-36.232,33.182-49.892c18.442-16.174,40.15-24.459,64.277-27.122
		c3.561-0.396,7.117-0.627,10.687-0.85c4.86-0.307,7.917-4.615,7.764-10.147c-0.137-4.896-3.801-9.254-8.21-9.586
		C278.116,245.082,275.948,245.187,273.792,245.17z M261.319,289.979c-3.562,0.29-7.215,0.155-10.667,0.928
		c-27.896,6.269-47.679,22.711-59.765,48.465c-2.411,5.137,0.254,11.3,5.177,13.428c4.771,2.063,9.896-0.049,12.568-5.027
		c3.049-5.689,6.46-11.117,10.652-16.101c11.09-13.169,25.445-19.657,42.289-20.905c6.858-0.507,11.1-4.118,11.001-10.548
		C272.475,293.749,268.365,290.011,261.319,289.979z"/>
	
		<linearGradient id="SVGID_2_" gradientUnits="userSpaceOnUse" x1="-80.519" y1="-268.5215" x2="163.2666" y2="-268.5215" gradientTransform="matrix(1 0.0076 -0.0076 1 157.7663 520.1386)">
		<stop  offset="0" style="stop-color:#03A9F4"/>
		<stop  offset="1" style="stop-color:#02CBDF"/>
	</linearGradient>
	<path fill-rule="evenodd" clip-rule="evenodd" fill="url(#SVGID_2_)" d="M304.472,174.642
		c-37.117,0.722-71.828,9.953-103.88,28.978c-15.781,9.366-30.099,20.532-42.679,33.815c-13.142,13.885-24.386,29.221-33.918,45.851
		c-10.906,19.026-19.141,39.16-25.988,59.918c-1.284,3.892-3.545,6.515-7.902,6.761c-8.984,0.513-13.423-4.957-10.698-13.731
		c4.13-13.297,9.156-26.274,14.992-38.923c9.584-20.782,21.021-40.467,35.379-58.346c11.265-14.022,23.932-26.654,38.152-37.703
		c11.93-9.275,24.682-17.249,38.24-23.879c21.27-10.404,43.72-17.264,67.055-20.884c11.706-1.816,23.568-2.979,35.501-2.613
		c2.77,0.086,5.431,0.628,8.06,1.183c4.404,0.923,7.525,6.283,6.871,11.087c-0.661,4.849-4.563,8.495-9.258,8.551
		C311.091,174.744,307.782,174.668,304.472,174.642z"/>
	
		<linearGradient id="SVGID_3_" gradientUnits="userSpaceOnUse" x1="-45.5938" y1="-243.6396" x2="145.9741" y2="-243.6396" gradientTransform="matrix(1 0.0076 -0.0076 1 157.7663 520.1386)">
		<stop  offset="0" style="stop-color:#03A9F4"/>
		<stop  offset="1" style="stop-color:#02CBDF"/>
	</linearGradient>
	<path fill-rule="evenodd" clip-rule="evenodd" fill="url(#SVGID_3_)" d="M286.552,223.719
		c-34.604,0.165-65.393,11.002-92.435,32.692c-20.226,16.221-35.64,36.238-47.883,58.926c-4.907,9.098-9.302,18.403-13.063,28.027
		c-2.485,6.369-7.795,9.055-13.229,6.838c-5.812-2.372-7.911-7.889-5.299-14.297c9.672-23.754,21.719-46.225,37.753-66.303
		c18.927-23.707,42.375-41.592,70.341-53.694c14.494-6.271,29.59-9.922,45.051-11.948c9.729-1.279,19.667-1.966,29.529-0.061
		c5.475,1.058,9.211,5.527,8.716,10.981c-0.504,5.499-4.374,8.954-9.991,8.91C292.877,223.768,289.716,223.742,286.552,223.719z"/>
	
		<linearGradient id="SVGID_4_" gradientUnits="userSpaceOnUse" x1="-6.2451" y1="-222.3311" x2="128.6895" y2="-222.3311" gradientTransform="matrix(1 0.0076 -0.0076 1 157.7663 520.1386)">
		<stop  offset="0" style="stop-color:#03A9F4"/>
		<stop  offset="1" style="stop-color:#02CBDF"/>
	</linearGradient>
	<path fill-rule="evenodd" clip-rule="evenodd" fill="url(#SVGID_4_)" d="M273.792,245.17c2.156,0.017,4.324-0.088,6.47,0.075
		c4.409,0.332,8.073,4.689,8.21,9.586c0.153,5.532-2.903,9.841-7.764,10.147c-3.569,0.223-7.126,0.454-10.687,0.85
		c-24.127,2.663-45.835,10.948-64.277,27.122c-15.574,13.659-26.221,30.54-33.182,49.892c-2.24,6.225-7.376,9.719-12.195,8.208
		c-6.254-1.959-9.047-7.608-6.605-14.561c4.684-13.346,11.262-25.759,19.56-37.222c15.747-21.766,36.275-37.261,61.515-46.461
		C247.411,248.221,260.262,244.932,273.792,245.17z"/>
	
		<linearGradient id="SVGID_5_" gradientUnits="userSpaceOnUse" x1="30.874" y1="-198.9043" x2="113.1338" y2="-198.9043" gradientTransform="matrix(1 0.0076 -0.0076 1 157.7663 520.1386)">
		<stop  offset="0" style="stop-color:#03A9F4"/>
		<stop  offset="1" style="stop-color:#02CBDF"/>
	</linearGradient>
	<path fill-rule="evenodd" clip-rule="evenodd" fill="url(#SVGID_5_)" d="M261.319,289.979c7.046,0.031,11.155,3.77,11.256,10.239
		c0.099,6.43-4.143,10.041-11.001,10.548c-16.844,1.248-31.199,7.736-42.289,20.905c-4.192,4.983-7.604,10.411-10.652,16.101
		c-2.673,4.979-7.798,7.091-12.568,5.027c-4.923-2.128-7.588-8.291-5.177-13.428c12.086-25.754,31.868-42.196,59.765-48.465
		C254.104,290.135,257.758,290.27,261.319,289.979z"/>
</g>
</svg>
